<svg width="24" height="24" xmlns="http://www.w3.org/2000/svg" viewBox="0 0 24 24" fill="currentColor" stroke="none" stroke-width="0" stroke-linecap="round" stroke-linejoin="round">
  <path d="M3 2h1.5L6 6h14l1.5 9H6.5L5 6H3z" fill="#e0e0e0" />
  <path d="M6 17h15v2H6zm0-1a2 2 0 1 0 0 4 2 2 0 0 0 0-4zm12 0a2 2 0 1 0 0 4 2 2 0 0 0 0-4z" fill="#b0bec5" />
  <rect x="6" y="9" width="15" height="7" rx="1" fill="#cfd8dc" />
  <circle cx="6" cy="20" r="2" fill="#333" />
  <circle cx="18" cy="20" r="2" fill="#333" />
</svg>
